<?xml version="1.0" standalone="no"?>
<!DOCTYPE svg PUBLIC "-//W3C//DTD SVG 20010904//EN" "http://www.w3.org/TR/2001/REC-SVG-20010904/DTD/svg10.dtd">
<svg version="1.0" xmlns="http://www.w3.org/2000/svg" width="204.000000pt" height="152.000000pt"
    viewBox="0 0 204.000000 152.000000" preserveAspectRatio="xMidYMid meet">

    <g transform="translate(0.000000,152.000000) scale(0.100000,-0.100000)" fill="#082f49" stroke="none">
        <path d="M1224 1323 c-270 -148 -635 -360 -639 -372 -8 -21 15 -40 159 -125
109 -64 137 -76 174 -76 45 0 57 6 659 349 66 37 82 57 61 76 -7 7 -71 47
-143 90 -157 94 -192 102 -271 58z" />
        <path d="M1160 751 c-30 -16 -89 -49 -130 -73 l-75 -45 4 -159 c3 -113 8 -165
18 -180 17 -26 255 -173 292 -180 15 -3 34 1 46 10 19 14 20 28 23 289 3 303
-2 338 -53 357 -41 16 -66 12 -125 -19z" />
    </g>
</svg>